<svg aria-hidden="true" style="width:0;height:0;position:absolute;overflow:hidden" xmlns="http://www.w3.org/2000/svg"><defs><symbol id="calendar" viewBox="0 0 32 32"><path d="M22.667 4H28a1.335 1.335 0 0 1 1.334 1.334v21.333A1.335 1.335 0 0 1 28 28.001H4a1.33 1.33 0 0 1-1.333-1.334V5.334A1.333 1.333 0 0 1 4 4h5.333V1.333H12V4h8V1.333h2.667V4zm4 10.667H5.334v10.667h21.333V14.667zm-6.667-8h-8v2.667H9.333V6.667h-4V12h21.333V6.667h-4v2.667h-2.667V6.667zM8 17.333h2.667V20H8v-2.667zm6.667 0h2.667V20h-2.667v-2.667zm6.666 0H24V20h-2.667v-2.667z"/></symbol><symbol id="left-arrow" viewBox="0 0 16 32"><path fill="#4440f6" style="fill:var(--color1,#4440f6)" d="M0 16c0 .596.204 1.107.642 1.55l12.192 12.982c.345.375.784.579 1.301.579 1.034 0 1.865-.886 1.865-2.027 0-.562-.219-1.056-.564-1.448L4.451 16 15.436 4.364c.345-.392.564-.903.564-1.448 0-1.141-.831-2.027-1.865-2.027-.517 0-.956.204-1.301.579L.642 14.433C.203 14.893 0 15.404 0 16z"/></symbol><symbol id="right-arrow" viewBox="0 0 16 32"><path fill="#4440f6" style="fill:var(--color1,#4440f6)" d="M16 16a2.309 2.309 0 0 0-.643-1.567L3.165 1.468c-.36-.375-.784-.579-1.301-.579-1.05 0-1.865.886-1.865 2.027 0 .545.204 1.056.564 1.448L11.533 16 .563 27.636a2.1 2.1 0 0 0-.564 1.448c0 1.142.815 2.027 1.865 2.027.501 0 .94-.204 1.301-.579L15.357 17.55c.439-.443.642-.954.642-1.55z"/></symbol><symbol id="down-arrow" viewBox="0 0 32 32"><path d="M3.76 9.143 0 12.622l16 14.806 16-14.806-3.76-3.479L16 20.445 3.76 9.143z"/></symbol><symbol id="heart" viewBox="0 0 32 32"><path stroke-linejoin="round" stroke-linecap="round" stroke-width="2" d="M9.333 4c-3.681 0-6.667 2.955-6.667 6.6 0 2.943 1.167 9.927 12.651 16.987a1.316 1.316 0 0 0 1.366 0c11.484-7.06 12.651-14.044 12.651-16.987 0-3.645-2.985-6.6-6.667-6.6S16 8 16 8s-2.985-4-6.667-4z"/></symbol><symbol id="search" viewBox="0 0 32 32"><path d="M13.333 23.6c2.367 0 4.665-.753 6.529-2.138l5.861 5.568 1.885-1.791-5.861-5.568a9.755 9.755 0 0 0 2.252-6.204c0-5.587-4.785-10.133-10.667-10.133S2.665 7.88 2.665 13.467c0 5.587 4.785 10.133 10.667 10.133zm0-17.733c4.412 0 8 3.409 8 7.6s-3.588 7.6-8 7.6-8-3.409-8-7.6 3.588-7.6 8-7.6z"/></symbol><symbol id="up-arrow" viewBox="0 0 32 32"><path d="M3.76 25.143 0 21.664 16 6.858l16 14.806-3.76 3.479L16 13.841 3.76 25.143z"/></symbol><symbol id="burger" viewBox="0 0 32 32"><path stroke-linejoin="round" stroke-linecap="round" stroke-width="2.667" d="M4 16h24M4 8h24M4 24h24"/></symbol><symbol id="close" viewBox="0 0 28 32"><path stroke-linejoin="round" stroke-linecap="round" stroke-width="2.37" d="M21.333 7.111 7.111 21.333M7.111 7.111l14.222 14.222"/></symbol><symbol id="sun" viewBox="0 0 32 32"><path stroke-linejoin="round" stroke-linecap="round" stroke-width="2.286" d="M16 1.778v2.586m0 23.272v2.586M5.941 5.941l1.836 1.836m16.446 16.446 1.836 1.836M1.778 16h2.586m23.272 0h2.586M5.941 26.059l1.836-1.836M24.223 7.777l1.836-1.836M22.465 16a6.465 6.465 0 1 1-12.93 0 6.465 6.465 0 0 1 12.93 0z"/></symbol><symbol id="moon" viewBox="0 0 32 32"><path stroke-linejoin="round" stroke-linecap="round" stroke-width="2.286" d="M28 17.053a11.994 11.994 0 0 1-7.873 10.182A12.003 12.003 0 0 1 4.338 18.56 12.002 12.002 0 0 1 14.946 3.999 9.335 9.335 0 0 0 28 17.053z"/></symbol><symbol id="home" viewBox="0 0 32 32"><path stroke-linejoin="round" stroke-linecap="round" stroke-width="1.778" d="m4 12 12-9.333L28 12v14.667a2.668 2.668 0 0 1-2.667 2.667H6.666a2.668 2.668 0 0 1-2.667-2.667V12z"/><path stroke-linejoin="round" stroke-linecap="round" stroke-width="1.778" d="M12 29.333V16h8v13.333"/></symbol><symbol id="favorite-heart" viewBox="0 0 32 32"><path stroke-linejoin="round" stroke-linecap="round" stroke-width="1.778" d="M27.787 6.146a7.345 7.345 0 0 0-5.187-2.15 7.33 7.33 0 0 0-5.187 2.15L16 7.559l-1.413-1.413a7.333 7.333 0 0 0-10.374 0 7.333 7.333 0 0 0 0 10.374L16 28.307 27.787 16.52a7.345 7.345 0 0 0 2.15-5.187 7.33 7.33 0 0 0-2.15-5.187z"/></symbol><symbol id="book" viewBox="0 0 32 32"><path stroke-linejoin="round" stroke-linecap="round" stroke-width="1.778" d="M2.667 4h8A5.332 5.332 0 0 1 16 9.333V28a4.003 4.003 0 0 0-4-4H2.667V4z"/><path stroke-linejoin="round" stroke-linecap="round" stroke-width="1.778" d="M29.333 4h-8A5.334 5.334 0 0 0 16 9.333V28a4.003 4.003 0 0 1 4-4h9.333V4z"/></symbol><symbol id="login" viewBox="0 0 16 16"><path fill-rule="evenodd" d="M6 3.5a.5.5 0 0 1 .5-.5h8a.5.5 0 0 1 .5.5v9a.5.5 0 0 1-.5.5h-8a.5.5 0 0 1-.5-.5v-2a.5.5 0 0 0-1 0v2A1.5 1.5 0 0 0 6.5 14h8a1.5 1.5 0 0 0 1.5-1.5v-9A1.5 1.5 0 0 0 14.5 2h-8A1.5 1.5 0 0 0 5 3.5v2a.5.5 0 0 0 1 0v-2z"/><path fill-rule="evenodd" d="M11.854 8.354a.5.5 0 0 0 0-.708l-3-3a.5.5 0 1 0-.708.708L10.293 7.5H1.5a.5.5 0 0 0 0 1h8.793l-2.147 2.146a.5.5 0 0 0 .708.708l3-3z"/></symbol><symbol id="icon-read" viewBox="0 0 43 32"><path fill="#00dd73" style="fill:var(--color1,#00dd73)" d="M40.502 1.584a1.6 1.6 0 0 0-1.1.484L14.933 26.537 4.864 16.468a1.6 1.6 0 1 0-2.263 2.263l11.2 11.2a1.6 1.6 0 0 0 2.262 0l25.6-25.6a1.603 1.603 0 0 0-.251-2.494 1.604 1.604 0 0 0-.911-.253z"/></symbol><symbol id="facebooks" viewBox="0 0 50 50"><path d="M9 4C6.25 4 4 6.25 4 9v32c0 2.75 2.25 5 5 5h16.832a1 1 0 0 0 .326 0h5.674a1 1 0 0 0 .326 0H41c2.75 0 5-2.25 5-5V9c0-2.75-2.25-5-5-5H9zm0 2h32c1.668 0 3 1.332 3 3v32c0 1.668-1.332 3-3 3h-8V30h3.82l1.4-7H33v-2c0-.557.053-.601.24-.723.187-.121.766-.277 1.76-.277h3v-5.63l-.57-.272S35.133 13 32 13c-2.25 0-4.098.896-5.281 2.375C25.536 16.854 25 18.833 25 21v2h-3v7h3v14H9c-1.668 0-3-1.332-3-3V9c0-1.668 1.332-3 3-3zm23 9c2.08 0 3.387.458 4 .701V18h-1c-1.15 0-2.073.095-2.85.6-.776.504-1.15 1.461-1.15 2.4v4h4.78l-.6 3H31v16h-4V28h-3v-3h3v-4c0-1.833.464-3.354 1.281-4.375S30.25 15 32 15z"/></symbol><symbol id="instagram" viewBox="0 0 24 24"><path d="M8 3C5.243 3 3 5.243 3 8v8c0 2.757 2.243 5 5 5h8c2.757 0 5-2.243 5-5V8c0-2.757-2.243-5-5-5H8zm0 2h8c1.654 0 3 1.346 3 3v8c0 1.654-1.346 3-3 3H8c-1.654 0-3-1.346-3-3V8c0-1.654 1.346-3 3-3zm9 1a1 1 0 0 0-1 1 1 1 0 0 0 1 1 1 1 0 0 0 1-1 1 1 0 0 0-1-1zm-5 1c-2.757 0-5 2.243-5 5s2.243 5 5 5 5-2.243 5-5-2.243-5-5-5zm0 2c1.654 0 3 1.346 3 3s-1.346 3-3 3-3-1.346-3-3 1.346-3 3-3z"/><symbol id="telegram" viewBox="0 0 80 80"><path d="M70.512 10.986c-.679.03-1.355.21-1.975.451h-.002c-.604.236-4.485 1.844-10.142 4.192-5.658 2.348-13.01 5.404-20.301 8.435A94543.868 94543.868 0 0 0 9.184 36.092l.064-.024s-.8.262-1.6.803c-.4.27-.82.616-1.152 1.096-.332.48-.566 1.137-.476 1.842.161 1.271 1.028 2.103 1.744 2.603.715.5 1.402.736 1.402.736l.008.004 14.014 4.633c.23.803 3.976 13.846 4.859 16.6.462 1.442.889 2.242 1.289 2.746.2.252.397.43.596.553.085.052.17.088.252.119.013.005.027.015.04.02.029.009.044.009.079.017 1.32.488 2.435-.363 2.435-.363l.032-.024L42.377 59l14.209 11.395.125.054c2.28.982 4.165.443 5.26-.422a5.319 5.319 0 0 0 1.539-1.996l.035-.088 10.25-51.845c.251-1.11.276-2.04.059-2.84-.218-.8-.725-1.45-1.354-1.815-.629-.364-1.31-.486-1.988-.457zm.054 2.035c.398-.017.734.038.932.153.198.115.327.246.426.61.099.362.123.975-.08 1.87l-.004.014-10.21 51.645c-.014.034-.277.653-.9 1.144-.627.496-1.481.862-3.152.17l-22.84-18.316A1 1 0 0 0 34 50a1 1 0 0 0-1.012.975l-2.603 13.949a11.905 11.905 0 0 1-.432-1.15c-.806-2.514-4.43-15.099-4.787-16.338l35.848-23.21A1 1 0 0 0 62 25a1 1 0 0 0 .988-1.217c.027-.306.001-.607-.133-.906-.215-.483-.726-.777-1.09-.846-.726-.137-1.199.127-1.199.127l-.1.037L23.858 45.9l-14.03-4.638-.005-.002a4.363 4.363 0 0 1-.914-.489c-.471-.329-.846-.756-.904-1.214-.02-.16.01-.27.137-.452.126-.182.36-.398.627-.578.532-.36 1.12-.564 1.12-.564l.032-.012.033-.014S24.28 31.974 38.86 25.91c7.29-3.031 14.645-6.086 20.301-8.433 5.657-2.348 9.696-4.018 10.102-4.176a4.18 4.18 0 0 1 1.304-.28zM59.2 25.7l-.8.403-.159.882.614.655.345.06.801-.4.158-.883-.611-.654-.348-.063zM56.4 28.4l-.8.4-.159.884.612.654.347.062.801-.402.158-.88-.613-.655-.346-.063zm-2.8 2.7-.801.402-.158.88.611.655.348.063.8-.4.159-.884-.612-.654-.347-.062zm-2.8 2.7-.802.401-.156.883.611.654.348.063.8-.403.159-.88-.614-.657-.345-.06zM48 36.5l-.8.402-.159.881.611.654.348.063.8-.4.159-.883-.611-.654L48 36.5zm-2.8 2.7-.802.402-.158.882.614.655.345.06.803-.4.156-.883-.611-.654-.348-.063zm-2.8 2.7-.8.4-.159.884.612.654.347.062.801-.402.158-.88-.613-.655-.346-.063zm-2.8 2.7-.801.402-.158.88.613.655.346.063.8-.4.159-.884-.612-.654-.347-.062zm-2.8 2.7-.802.401-.156.883.611.654.348.063.8-.403.159-.882-.614-.655-.345-.06zm-2.124 5.524 6.119 4.906-8.416 7.403 2.297-12.309z"/></symbol></symbol></defs></svg>