<svg aria-hidden="true" style="width:0;height:0;position:absolute;overflow:hidden" xmlns="http://www.w3.org/2000/svg"><defs><symbol id="calendar" viewBox="0 0 32 32"><path d="M22.667 4H28a1.335 1.335 0 0 1 1.334 1.334v21.333A1.335 1.335 0 0 1 28 28.001H4a1.33 1.33 0 0 1-1.333-1.334V5.334A1.333 1.333 0 0 1 4 4h5.333V1.333H12V4h8V1.333h2.667V4zm4 10.667H5.334v10.667h21.333V14.667zm-6.667-8h-8v2.667H9.333V6.667h-4V12h21.333V6.667h-4v2.667h-2.667V6.667zM8 17.333h2.667V20H8v-2.667zm6.667 0h2.667V20h-2.667v-2.667zm6.666 0H24V20h-2.667v-2.667z"/></symbol><symbol id="left-arrow" viewBox="0 0 16 32"><path fill="#4440f6" style="fill:var(--color1,#4440f6)" d="M0 16c0 .596.204 1.107.642 1.55l12.192 12.982c.345.375.784.579 1.301.579 1.034 0 1.865-.886 1.865-2.027 0-.562-.219-1.056-.564-1.448L4.451 16 15.436 4.364c.345-.392.564-.903.564-1.448 0-1.141-.831-2.027-1.865-2.027-.517 0-.956.204-1.301.579L.642 14.433C.203 14.893 0 15.404 0 16z"/></symbol><symbol id="right-arrow" viewBox="0 0 16 32"><path fill="#4440f6" style="fill:var(--color1,#4440f6)" d="M16 16a2.309 2.309 0 0 0-.643-1.567L3.165 1.468c-.36-.375-.784-.579-1.301-.579-1.05 0-1.865.886-1.865 2.027 0 .545.204 1.056.564 1.448L11.533 16 .563 27.636a2.1 2.1 0 0 0-.564 1.448c0 1.142.815 2.027 1.865 2.027.501 0 .94-.204 1.301-.579L15.357 17.55c.439-.443.642-.954.642-1.55z"/></symbol><symbol id="down-arrow" viewBox="0 0 32 32"><path d="M3.76 9.143 0 12.622l16 14.806 16-14.806-3.76-3.479L16 20.445 3.76 9.143z"/></symbol><symbol id="heart" viewBox="0 0 32 32"><path stroke-linejoin="round" stroke-linecap="round" stroke-width="2" d="M9.333 4c-3.681 0-6.667 2.955-6.667 6.6 0 2.943 1.167 9.927 12.651 16.987a1.316 1.316 0 0 0 1.366 0c11.484-7.06 12.651-14.044 12.651-16.987 0-3.645-2.985-6.6-6.667-6.6S16 8 16 8s-2.985-4-6.667-4z"/></symbol><symbol id="search" viewBox="0 0 32 32"><path d="M13.333 23.6c2.367 0 4.665-.753 6.529-2.138l5.861 5.568 1.885-1.791-5.861-5.568a9.755 9.755 0 0 0 2.252-6.204c0-5.587-4.785-10.133-10.667-10.133S2.665 7.88 2.665 13.467c0 5.587 4.785 10.133 10.667 10.133zm0-17.733c4.412 0 8 3.409 8 7.6s-3.588 7.6-8 7.6-8-3.409-8-7.6 3.588-7.6 8-7.6z"/></symbol><symbol id="up-arrow" viewBox="0 0 32 32"><path d="M3.76 25.143 0 21.664 16 6.858l16 14.806-3.76 3.479L16 13.841 3.76 25.143z"/></symbol><symbol id="burger" viewBox="0 0 32 32"><path stroke-linejoin="round" stroke-linecap="round" stroke-width="2.667" d="M4 16h24M4 8h24M4 24h24"/></symbol><symbol id="close" viewBox="0 0 28 32"><path stroke-linejoin="round" stroke-linecap="round" stroke-width="2.37" d="M21.333 7.111 7.111 21.333M7.111 7.111l14.222 14.222"/></symbol><symbol id="sun" viewBox="0 0 32 32"><path stroke-linejoin="round" stroke-linecap="round" stroke-width="2.286" d="M16 1.778v2.586m0 23.272v2.586M5.941 5.941l1.836 1.836m16.446 16.446 1.836 1.836M1.778 16h2.586m23.272 0h2.586M5.941 26.059l1.836-1.836M24.223 7.777l1.836-1.836M22.465 16a6.465 6.465 0 1 1-12.93 0 6.465 6.465 0 0 1 12.93 0z"/></symbol><symbol id="moon" viewBox="0 0 32 32"><path stroke-linejoin="round" stroke-linecap="round" stroke-width="2.286" d="M28 17.053a11.994 11.994 0 0 1-7.873 10.182A12.003 12.003 0 0 1 4.338 18.56 12.002 12.002 0 0 1 14.946 3.999 9.335 9.335 0 0 0 28 17.053z"/></symbol><symbol id="home" viewBox="0 0 32 32"><path stroke-linejoin="round" stroke-linecap="round" stroke-width="1.778" d="m4 12 12-9.333L28 12v14.667a2.668 2.668 0 0 1-2.667 2.667H6.666a2.668 2.668 0 0 1-2.667-2.667V12z"/><path stroke-linejoin="round" stroke-linecap="round" stroke-width="1.778" d="M12 29.333V16h8v13.333"/></symbol><symbol id="favorite-heart" viewBox="0 0 32 32"><path stroke-linejoin="round" stroke-linecap="round" stroke-width="1.778" d="M27.787 6.146a7.345 7.345 0 0 0-5.187-2.15 7.33 7.33 0 0 0-5.187 2.15L16 7.559l-1.413-1.413a7.333 7.333 0 0 0-10.374 0 7.333 7.333 0 0 0 0 10.374L16 28.307 27.787 16.52a7.345 7.345 0 0 0 2.15-5.187 7.33 7.33 0 0 0-2.15-5.187z"/></symbol><symbol id="book" viewBox="0 0 32 32"><path stroke-linejoin="round" stroke-linecap="round" stroke-width="1.778" d="M2.667 4h8A5.332 5.332 0 0 1 16 9.333V28a4.003 4.003 0 0 0-4-4H2.667V4z"/><path stroke-linejoin="round" stroke-linecap="round" stroke-width="1.778" d="M29.333 4h-8A5.334 5.334 0 0 0 16 9.333V28a4.003 4.003 0 0 1 4-4h9.333V4z"/></symbol><symbol id="login" viewBox="0 0 16 16"><path fill-rule="evenodd" d="M6 3.5a.5.5 0 0 1 .5-.5h8a.5.5 0 0 1 .5.5v9a.5.5 0 0 1-.5.5h-8a.5.5 0 0 1-.5-.5v-2a.5.5 0 0 0-1 0v2A1.5 1.5 0 0 0 6.5 14h8a1.5 1.5 0 0 0 1.5-1.5v-9A1.5 1.5 0 0 0 14.5 2h-8A1.5 1.5 0 0 0 5 3.5v2a.5.5 0 0 0 1 0v-2z"/><path fill-rule="evenodd" d="M11.854 8.354a.5.5 0 0 0 0-.708l-3-3a.5.5 0 1 0-.708.708L10.293 7.5H1.5a.5.5 0 0 0 0 1h8.793l-2.147 2.146a.5.5 0 0 0 .708.708l3-3z"/></symbol><symbol id="icon-read" viewBox="0 0 43 32"><path fill="#00dd73" style="fill:var(--color1,#00dd73)" d="M40.502 1.584a1.6 1.6 0 0 0-1.1.484L14.933 26.537 4.864 16.468a1.6 1.6 0 1 0-2.263 2.263l11.2 11.2a1.6 1.6 0 0 0 2.262 0l25.6-25.6a1.603 1.603 0 0 0-.251-2.494 1.604 1.604 0 0 0-.911-.253z"/></symbol><symbol id="facebooks" viewBox="0 0 50 50"><path d="M9 4C6.25 4 4 6.25 4 9v32c0 2.75 2.25 5 5 5h16.832a1 1 0 0 0 .326 0h5.674a1 1 0 0 0 .326 0H41c2.75 0 5-2.25 5-5V9c0-2.75-2.25-5-5-5H9zm0 2h32c1.668 0 3 1.332 3 3v32c0 1.668-1.332 3-3 3h-8V30h3.82l1.4-7H33v-2c0-.557.053-.601.24-.723.187-.121.766-.277 1.76-.277h3v-5.63l-.57-.272S35.133 13 32 13c-2.25 0-4.098.896-5.281 2.375C25.536 16.854 25 18.833 25 21v2h-3v7h3v14H9c-1.668 0-3-1.332-3-3V9c0-1.668 1.332-3 3-3zm23 9c2.08 0 3.387.458 4 .701V18h-1c-1.15 0-2.073.095-2.85.6-.776.504-1.15 1.461-1.15 2.4v4h4.78l-.6 3H31v16h-4V28h-3v-3h3v-4c0-1.833.464-3.354 1.281-4.375S30.25 15 32 15z"/></symbol><symbol id="instagram" viewBox="0 0 24 24"><path d="M8 3C5.243 3 3 5.243 3 8v8c0 2.757 2.243 5 5 5h8c2.757 0 5-2.243 5-5V8c0-2.757-2.243-5-5-5H8zm0 2h8c1.654 0 3 1.346 3 3v8c0 1.654-1.346 3-3 3H8c-1.654 0-3-1.346-3-3V8c0-1.654 1.346-3 3-3zm9 1a1 1 0 0 0-1 1 1 1 0 0 0 1 1 1 1 0 0 0 1-1 1 1 0 0 0-1-1zm-5 1c-2.757 0-5 2.243-5 5s2.243 5 5 5 5-2.243 5-5-2.243-5-5-5zm0 2c1.654 0 3 1.346 3 3s-1.346 3-3 3-3-1.346-3-3 1.346-3 3-3z"/><symbol id="telegram" viewBox="0 0 80 80"><path d="M70.512 10.986c-.679.03-1.355.21-1.975.451h-.002c-.604.236-4.485 1.844-10.142 4.192-5.658 2.348-13.01 5.404-20.301 8.435A94543.868 94543.868 0 0 0 9.184 36.092l.064-.024s-.8.262-1.6.803c-.4.27-.82.616-1.152 1.096-.332.48-.566 1.137-.476 1.842.161 1.271 1.028 2.103 1.744 2.603.715.5 1.402.736 1.402.736l.008.004 14.014 4.633c.23.803 3.976 13.846 4.859 16.6.462 1.442.889 2.242 1.289 2.746.2.252.397.43.596.553.085.052.17.088.252.119.013.005.027.015.04.02.029.009.044.009.079.017 1.32.488 2.435-.363 2.435-.363l.032-.024L42.377 59l14.209 11.395.125.054c2.28.982 4.165.443 5.26-.422a5.319 5.319 0 0 0 1.539-1.996l.035-.088 10.25-51.845c.251-1.11.276-2.04.059-2.84-.218-.8-.725-1.45-1.354-1.815-.629-.364-1.31-.486-1.988-.457zm.054 2.035c.398-.017.734.038.932.153.198.115.327.246.426.61.099.362.123.975-.08 1.87l-.004.014-10.21 51.645c-.014.034-.277.653-.9 1.144-.627.496-1.481.862-3.152.17l-22.84-18.316A1 1 0 0 0 34 50a1 1 0 0 0-1.012.975l-2.603 13.949a11.905 11.905 0 0 1-.432-1.15c-.806-2.514-4.43-15.099-4.787-16.338l35.848-23.21A1 1 0 0 0 62 25a1 1 0 0 0 .988-1.217c.027-.306.001-.607-.133-.906-.215-.483-.726-.777-1.09-.846-.726-.137-1.199.127-1.199.127l-.1.037L23.858 45.9l-14.03-4.638-.005-.002a4.363 4.363 0 0 1-.914-.489c-.471-.329-.846-.756-.904-1.214-.02-.16.01-.27.137-.452.126-.182.36-.398.627-.578.532-.36 1.12-.564 1.12-.564l.032-.012.033-.014S24.28 31.974 38.86 25.91c7.29-3.031 14.645-6.086 20.301-8.433 5.657-2.348 9.696-4.018 10.102-4.176a4.18 4.18 0 0 1 1.304-.28zM59.2 25.7l-.8.403-.159.882.614.655.345.06.801-.4.158-.883-.611-.654-.348-.063zM56.4 28.4l-.8.4-.159.884.612.654.347.062.801-.402.158-.88-.613-.655-.346-.063zm-2.8 2.7-.801.402-.158.88.611.655.348.063.8-.4.159-.884-.612-.654-.347-.062zm-2.8 2.7-.802.401-.156.883.611.654.348.063.8-.403.159-.88-.614-.657-.345-.06zM48 36.5l-.8.402-.159.881.611.654.348.063.8-.4.159-.883-.611-.654L48 36.5zm-2.8 2.7-.802.402-.158.882.614.655.345.06.803-.4.156-.883-.611-.654-.348-.063zm-2.8 2.7-.8.4-.159.884.612.654.347.062.801-.402.158-.88-.613-.655-.346-.063zm-2.8 2.7-.801.402-.158.88.613.655.346.063.8-.4.159-.884-.612-.654-.347-.062zm-2.8 2.7-.802.401-.156.883.611.654.348.063.8-.403.159-.882-.614-.655-.345-.06zm-2.124 5.524 6.119 4.906-8.416 7.403 2.297-12.309z"/><symbol id="icon-group-of-people" viewBox="0 0 32 32"><path d="M0 22.331c.051-.617.246-2.767.414-3.044.847-1.409 2.295-2.326 3.926-2.751s3.45-.359 5.026.195c1.803-1.557 4.285-2.259 6.634-2.259s4.831.706 6.634 2.259c3.021-1.061 7.204-.355 8.952 2.556.16.261.363 2.435.414 3.044H0zm7.454-.949c.055-.499.308-2.693.433-2.907.215-.355.457-.687.726-.995a7.895 7.895 0 0 0-4.035-.031c-1.405.367-2.646 1.143-3.356 2.322-.008.016-.156 1.381-.183 1.612zm15.933-3.902c.269.308.511.64.726.995.125.211.379 2.412.433 2.907h6.416c-.027-.219-.183-1.604-.183-1.608-1.432-2.392-4.874-2.997-7.391-2.295zM8.402 21.382h15.196c-.035-.316-.281-2.4-.297-2.423-1.483-2.47-4.539-3.539-7.302-3.539-2.767 0-5.819 1.069-7.302 3.539-.016.027-.261 2.107-.297 2.423zM16 5.449a4.397 4.397 0 1 1 0 8.792 4.4 4.4 0 0 1-4.398-4.394A4.398 4.398 0 0 1 16 5.449zm0 .944a3.452 3.452 0 0 0 0 6.904 3.452 3.452 0 0 0 0-6.904z"/><path d="M25.467 9.121a3.384 3.384 0 0 1 0 6.766c-1.865 0-3.383-1.518-3.383-3.383s1.518-3.383 3.383-3.383zm0 .948a2.434 2.434 0 0 0-2.439 2.435 2.435 2.435 0 0 0 2.439 2.439c1.343 0 2.435-1.093 2.435-2.439s-1.089-2.435-2.435-2.435zM6.533 10.069a2.433 2.433 0 0 0-2.435 2.435c0 1.35 1.089 2.439 2.435 2.439s2.439-1.093 2.439-2.439a2.44 2.44 0 0 0-2.439-2.435zm0-.948a3.382 3.382 0 1 1 .002 6.768 3.382 3.382 0 0 1-.002-6.768zM.013 22.389l-.002.001H.009l-.006-.001c-.002-.001-.002-.003-.002-.006l.002-.005.006-.002h.002l.002.001v.003l-.002-.001-.002-.001-.003.001-.001.004.001.004.003.001h.002l.002-.001zM.024 22.381H.023l-.001-.001-.002.001-.001.002v.005H.015v-.011h.004v.002l.001-.001.002-.001h.001zM.036 22.384v.001H.028l.001.002h.004l.003-.001v.003l-.003.001H.031l-.005-.001-.001-.004.001-.004.004-.001.004.001.001.004zm-.003-.001-.001-.001-.001-.001-.001.001-.001.001zM.044 22.384l-.001.001-.001.001v.001h.001l.002-.001.001-.001v-.001zm.005-.001v.006H.046v-.001l-.002.001H.042l-.003-.001-.001-.003.001-.002.004-.001h.002v-.001l-.001-.001-.002-.001H.039l-.001.001v-.003h.004l.004.001.001.003zM.056 22.376v.003h.003v.002H.056v.006h.003v.002H.056l-.003-.001-.001-.003v-.005H.05v-.002h.002v-.003zM.072 22.384v.001H.064l.001.002h.004l.003-.001v.003l-.003.001H.067l-.005-.001-.001-.004.001-.004.004-.001.004.001.001.004zm-.004-.001-.001-.001-.001-.001-.001.001-.001.001zM.081 22.38v-.006h.004v.015H.081v-.001l-.001.001H.079l-.004-.001-.001-.004.001-.004.004-.001.001.001.001.001zm-.002.007.001-.001.001-.002-.001-.002-.001-.001-.001.001-.001.002.001.002.001.001zM.101 22.387l.001-.001.001-.002-.001-.002-.001-.001-.001.001-.001.002.001.002.001.001zm-.002-.007.001-.001.002-.001.003.001.001.004-.001.004-.003.001H.1l-.001-.001v.001H.095v-.015h.004zM.108 22.379h.004l.003.007.002-.007h.004l-.004.011-.001.003-.002.001H.112v-.002h.001l.001-.001.001-.001v-.001zM.134 22.384l-.001.001-.001.001v.001h.001l.002-.001.001-.001v-.001zm.005-.001v.006H.136v-.001l-.002.001H.132l-.003-.001-.001-.003.001-.002.004-.001h.002v-.001l-.001-.001-.002-.001H.129l-.001.001v-.003h.004l.004.001.001.003zM.142 22.374h.004v.015H.142zM.148 22.374h.004v.015H.148zM.166 22.384v.001H.158l.001.002h.004l.003-.001v.003l-.003.001H.161l-.005-.001-.001-.004.001-.004.004-.001.004.001.001.004zm-.004-.001-.001-.001-.001-.001-.001.001-.001.001zM.171 22.384l-.004-.005h.004l.002.003.002-.003h.004l-.004.005.004.006H.175l-.002-.004-.002.004H.167zM.009 22.394v.003H.006v.001h.003v.002H.006v.009H.002V22.4H0v-.002h.002v-.001l.001-.002.004-.001z"/><path d="M.018 22.401H.017L.016 22.4l-.002.001-.001.002v.005H.009v-.011h.004v.002l.001-.001.002-.001h.001zM.024 22.4l-.001.001-.001.003.001.002.001.001.002-.001.001-.002-.001-.003-.002-.001zm0-.002.004.001.001.004-.001.004-.004.001-.004-.001-.001-.004.001-.004.004-.001zM.043 22.4l.001-.001.002-.001.002.001.001.003v.006H.045v-.006l-.001-.001V22.4l-.002.001v.007H.038v-.006L.037 22.4l-.001-.001-.001.001-.001.002v.005H.03v-.011h.004v.001l.001-.001.002-.001.001.001.001.001zM.064 22.395v.003h.003v.002H.064v.006h.003v.002H.064l-.003-.001-.001-.003v-.005H.058v-.002H.06v-.003zM.08 22.402v.006H.076V22.4H.075l-.001-.001-.001.001-.001.002v.005H.068v-.015h.004v.006l.001-.001.002-.001.003.001.001.003zM.094 22.403v.001H.086l.001.002h.004l.003-.001v.003l-.003.001H.089l-.005-.001-.001-.004.001-.004.004-.001.004.001.001.004zm-.004-.001-.001-.001-.001-.001-.001.001-.001.001zM.104 22.394h.004l.005.01v-.01h.004v.014H.113l-.006-.01v.01H.104zM.125 22.4l-.001.001-.001.003.001.002.001.001.002-.001.001-.002-.001-.003-.002-.001zm0-.002.004.001.001.004-.001.004-.004.001-.004-.001-.001-.004.001-.004.004-.001zM.133 22.404v-.006h.004v.008l.001.001h.001l.001-.001.001-.003v-.005h.004v.011H.141v-.001l-.001.001H.138l-.003-.001-.001-.004zM.158 22.402v.006H.154V22.4H.153l-.001-.001-.001.001-.001.002v.005H.146v-.011H.15v.001l.001-.001.002-.001.003.001.001.003zM.168 22.394h.006l.004.001.001.004-.001.004-.004.001H.172v.005H.168zm.004.003v.004h.004l.001-.001-.001-.001-.001-.001zM.19 22.401H.189L.188 22.4l-.002.001-.001.002v.005H.181v-.011h.004v.002l.001-.001.002-.001h.001zM.197 22.4l-.001.001-.001.003.001.002.001.001.002-.001.001-.002-.001-.003-.002-.001zm0-.002.004.001.001.004-.001.004-.004.001-.004-.001-.001-.004.001-.004.004-.001zM.205 22.398h.004v.011l-.001.003-.003.001H.204v-.002h.001l.001-.001.001-.001zm0-.004h.004v.003H.205zM.222 22.403v.001H.214l.001.002h.004l.003-.001v.003l-.003.001H.217l-.005-.001-.001-.004.001-.004.004-.001.004.001.001.004zm-.003-.001-.001-.001-.001-.001-.001.001-.001.001zM.234 22.398v.003H.232L.231 22.4l-.002.001-.001.002.001.002a.003.003 0 0 0 .002.001h.002l.001-.001v.003H.23l-.005-.001-.001-.004.001-.004.005-.001h.004zM.241 22.395v.003h.003v.002H.241v.006h.003v.002H.241l-.003-.001-.001-.003v-.005H.235v-.002h.002v-.003z"/></symbol></symbol></symbol></defs></svg>