<svg aria-hidden="true" style="position: absolute; width: 0; height: 0; overflow: hidden;" version="1.1" xmlns="http://www.w3.org/2000/svg" xmlns:xlink="http://www.w3.org/1999/xlink">
<defs>
<symbol id="calendar" viewBox="0 0 32 32">
<path d="M22.667 4h5.333c0.354 0 0.693 0.14 0.943 0.391s0.391 0.589 0.391 0.943v21.333c0 0.354-0.14 0.693-0.391 0.943s-0.589 0.391-0.943 0.391h-24c-0.354 0-0.693-0.14-0.943-0.391s-0.39-0.589-0.39-0.943v-21.333c0-0.354 0.14-0.693 0.39-0.943s0.589-0.391 0.943-0.391h5.333v-2.667h2.667v2.667h8v-2.667h2.667v2.667zM26.667 14.667h-21.333v10.667h21.333v-10.667zM20 6.667h-8v2.667h-2.667v-2.667h-4v5.333h21.333v-5.333h-4v2.667h-2.667v-2.667zM8 17.333h2.667v2.667h-2.667v-2.667zM14.667 17.333h2.667v2.667h-2.667v-2.667zM21.333 17.333h2.667v2.667h-2.667v-2.667z"></path>
</symbol>
<symbol id="left-arrow" viewBox="0 0 16 32">
<path fill="#4440f6" style="fill: var(--color1, #4440f6)" d="M0 16c0 0.596 0.204 1.107 0.642 1.55l12.192 12.982c0.345 0.375 0.784 0.579 1.301 0.579 1.034 0 1.865-0.886 1.865-2.027 0-0.562-0.219-1.056-0.564-1.448l-10.985-11.636 10.985-11.636c0.345-0.392 0.564-0.903 0.564-1.448 0-1.141-0.831-2.027-1.865-2.027-0.517 0-0.956 0.204-1.301 0.579l-12.192 12.965c-0.439 0.46-0.642 0.971-0.642 1.567z"></path>
</symbol>
<symbol id="right-arrow" viewBox="0 0 16 32">
<path fill="#4440f6" style="fill: var(--color1, #4440f6)" d="M16 16c-0.016-0.596-0.219-1.107-0.643-1.567l-12.192-12.965c-0.36-0.375-0.784-0.579-1.301-0.579-1.050 0-1.865 0.886-1.865 2.027 0 0.545 0.204 1.056 0.564 1.448l10.97 11.636-10.97 11.636c-0.36 0.392-0.564 0.886-0.564 1.448 0 1.142 0.815 2.027 1.865 2.027 0.501 0 0.94-0.204 1.301-0.579l12.192-12.982c0.439-0.443 0.642-0.954 0.642-1.55z"></path>
</symbol>
<symbol id="down-arrow" viewBox="0 0 32 32">
<path d="M3.76 9.143l-3.76 3.479 16 14.806 16-14.806-3.76-3.479-12.24 11.302-12.24-11.302z"></path>
</symbol>
<symbol id="heart" viewBox="0 0 32 32">
<path stroke-linejoin="round" stroke-linecap="round" stroke-miterlimit="4" stroke-width="2" d="M9.333 4c-3.681 0-6.667 2.955-6.667 6.6 0 2.943 1.167 9.927 12.651 16.987 0.206 0.125 0.442 0.191 0.683 0.191s0.477-0.066 0.683-0.191c11.484-7.060 12.651-14.044 12.651-16.987 0-3.645-2.985-6.6-6.667-6.6s-6.667 4-6.667 4-2.985-4-6.667-4z"></path>
</symbol>
<symbol id="search" viewBox="0 0 32 32">
<path d="M13.333 23.6c2.367-0 4.665-0.753 6.529-2.138l5.861 5.568 1.885-1.791-5.861-5.568c1.459-1.771 2.251-3.955 2.252-6.204 0-5.587-4.785-10.133-10.667-10.133s-10.667 4.546-10.667 10.133c0 5.587 4.785 10.133 10.667 10.133zM13.333 5.867c4.412 0 8 3.409 8 7.6s-3.588 7.6-8 7.6c-4.412 0-8-3.409-8-7.6s3.588-7.6 8-7.6z"></path>
</symbol>
<symbol id="up-arrow" viewBox="0 0 32 32">
<path d="M3.76 25.143l-3.76-3.479 16-14.806 16 14.806-3.76 3.479-12.24-11.302-12.24 11.302z"></path>
</symbol>
<symbol id="burger" viewBox="0 0 32 32">
<path stroke-linejoin="round" stroke-linecap="round" stroke-miterlimit="4" stroke-width="2.6667" d="M4 16h24"></path>
<path stroke-linejoin="round" stroke-linecap="round" stroke-miterlimit="4" stroke-width="2.6667" d="M4 8h24"></path>
<path stroke-linejoin="round" stroke-linecap="round" stroke-miterlimit="4" stroke-width="2.6667" d="M4 24h24"></path>
</symbol>
<symbol id="close" viewBox="0 0 28 32">
<path  stroke-linejoin="round" stroke-linecap="round" stroke-miterlimit="4" stroke-width="2.3704" d="M21.333 7.111l-14.222 14.222"></path>
<path  stroke-linejoin="round" stroke-linecap="round" stroke-miterlimit="4" stroke-width="2.3704" d="M7.111 7.111l14.222 14.222"></path>
</symbol>
<symbol id="sun" viewBox="0 0 32 32">
<path stroke-linejoin="round" stroke-linecap="round" stroke-miterlimit="4" stroke-width="2.2857" d="M16 1.778v2.586M16 27.636v2.586M5.941 5.941l1.836 1.836M24.223 24.223l1.836 1.836M1.778 16h2.586M27.636 16h2.586M5.941 26.059l1.836-1.836M24.223 7.777l1.836-1.836M22.465 16c0 3.57-2.894 6.465-6.465 6.465s-6.465-2.894-6.465-6.465c0-3.57 2.894-6.465 6.465-6.465s6.465 2.894 6.465 6.465z"></path>
</symbol>
<symbol id="moon" viewBox="0 0 32 32">
<path stroke-linejoin="round" stroke-linecap="round" stroke-miterlimit="4" stroke-width="2.2857" d="M28 17.053c-0.21 2.27-1.061 4.433-2.456 6.236s-3.273 3.172-5.417 3.946c-2.144 0.774-4.464 0.922-6.688 0.426s-4.262-1.615-5.874-3.227c-1.612-1.612-2.731-3.649-3.227-5.874s-0.348-4.544 0.426-6.688 2.143-4.023 3.946-5.417c1.803-1.394 3.966-2.246 6.236-2.456-1.329 1.798-1.968 4.013-1.802 6.242s1.127 4.325 2.708 5.906c1.581 1.581 3.676 2.542 5.906 2.708s4.444-0.473 6.242-1.802v0z"></path>
</symbol>
<symbol id="home" viewBox="0 0 32 32">
<path stroke-linejoin="round" stroke-linecap="round" stroke-miterlimit="4" stroke-width="1.7778" d="M4 12l12-9.333 12 9.333v14.667c0 0.707-0.281 1.386-0.781 1.886s-1.178 0.781-1.886 0.781h-18.667c-0.707 0-1.386-0.281-1.886-0.781s-0.781-1.178-0.781-1.886v-14.667z"></path>
<path stroke-linejoin="round" stroke-linecap="round" stroke-miterlimit="4" stroke-width="1.7778" d="M12 29.333v-13.333h8v13.333"></path>
</symbol>
<symbol id="favorite-heart" viewBox="0 0 32 32">
<path stroke-linejoin="round" stroke-linecap="round" stroke-miterlimit="4" stroke-width="1.7778" d="M27.787 6.146c-0.681-0.681-1.49-1.222-2.38-1.591s-1.844-0.559-2.807-0.559c-0.963 0-1.917 0.19-2.807 0.559s-1.698 0.909-2.38 1.591l-1.413 1.413-1.413-1.413c-1.376-1.376-3.241-2.148-5.187-2.148s-3.811 0.773-5.187 2.148c-1.376 1.376-2.148 3.241-2.148 5.187s0.773 3.811 2.148 5.187l11.787 11.787 11.787-11.787c0.681-0.681 1.222-1.49 1.591-2.38s0.559-1.844 0.559-2.807c0-0.963-0.19-1.917-0.559-2.807s-0.909-1.699-1.591-2.38v0z"></path>
</symbol>
<symbol id="book" viewBox="0 0 32 32">
<path stroke-linejoin="round" stroke-linecap="round" stroke-miterlimit="4" stroke-width="1.7778" d="M2.667 4h8c1.415 0 2.771 0.562 3.771 1.562s1.562 2.357 1.562 3.771v18.667c0-1.061-0.421-2.078-1.172-2.828s-1.768-1.172-2.828-1.172h-9.333v-20z"></path>
<path stroke-linejoin="round" stroke-linecap="round" stroke-miterlimit="4" stroke-width="1.7778" d="M29.333 4h-8c-1.414 0-2.771 0.562-3.771 1.562s-1.562 2.357-1.562 3.771v18.667c0-1.061 0.421-2.078 1.172-2.828s1.768-1.172 2.828-1.172h9.333v-20z"></path>
</symbol>
<symbol id="login" viewBox="0 0 16 16">
<path fill-rule="evenodd" d="M6 3.5a.5.5 0 0 1 .5-.5h8a.5.5 0 0 1 .5.5v9a.5.5 0 0 1-.5.5h-8a.5.5 0 0 1-.5-.5v-2a.5.5 0 0 0-1 0v2A1.5 1.5 0 0 0 6.5 14h8a1.5 1.5 0 0 0 1.5-1.5v-9A1.5 1.5 0 0 0 14.5 2h-8A1.5 1.5 0 0 0 5 3.5v2a.5.5 0 0 0 1 0v-2z"/> <path fill-rule="evenodd" d="M11.854 8.354a.5.5 0 0 0 0-.708l-3-3a.5.5 0 1 0-.708.708L10.293 7.5H1.5a.5.5 0 0 0 0 1h8.793l-2.147 2.146a.5.5 0 0 0 .708.708l3-3z"/>
</symbol>
<symbol id="icon-read" viewBox="0 0 43 32">
<path fill="#00dd73" style="fill: var(--color1, #00dd73)" d="M40.502 1.584c-0.415 0.012-0.81 0.186-1.1 0.484l-24.469 24.469-10.069-10.069c-0.147-0.154-0.324-0.276-0.519-0.361s-0.406-0.129-0.619-0.131c-0.213-0.002-0.424 0.038-0.621 0.119s-0.376 0.199-0.527 0.35c-0.151 0.151-0.269 0.33-0.35 0.527s-0.121 0.408-0.119 0.621c0.002 0.213 0.047 0.423 0.131 0.619s0.207 0.372 0.361 0.519l11.2 11.2c0.3 0.3 0.707 0.469 1.131 0.469s0.831-0.169 1.131-0.469l25.6-25.6c0.231-0.225 0.389-0.514 0.453-0.83s0.031-0.644-0.095-0.941c-0.126-0.297-0.338-0.549-0.609-0.723s-0.589-0.262-0.911-0.253z"></path>
</symbol>
 <symbol id="facebooks" viewBox="0 0 50 50"><path d="M 9 4 C 6.2504839 4 4 6.2504839 4 9 L 4 41 C 4 43.749516 6.2504839 46 9 46 L 25.832031 46 A 1.0001 1.0001 0 0 0 26.158203 46 L 31.832031 46 A 1.0001 1.0001 0 0 0 32.158203 46 L 41 46 C 43.749516 46 46 43.749516 46 41 L 46 9 C 46 6.2504839 43.749516 4 41 4 L 9 4 z M 9 6 L 41 6 C 42.668484 6 44 7.3315161 44 9 L 44 41 C 44 42.668484 42.668484 44 41 44 L 33 44 L 33 30 L 36.820312 30 L 38.220703 23 L 33 23 L 33 21 C 33 20.442508 33.05305 20.398929 33.240234 20.277344 C 33.427419 20.155758 34.005822 20 35 20 L 38 20 L 38 14.369141 L 37.429688 14.097656 C 37.429688 14.097656 35.132647 13 32 13 C 29.75 13 27.901588 13.896453 26.71875 15.375 C 25.535912 16.853547 25 18.833333 25 21 L 25 23 L 22 23 L 22 30 L 25 30 L 25 44 L 9 44 C 7.3315161 44 6 42.668484 6 41 L 6 9 C 6 7.3315161 7.3315161 6 9 6 z M 32 15 C 34.079062 15 35.38736 15.458455 36 15.701172 L 36 18 L 35 18 C 33.849178 18 32.926956 18.0952 32.150391 18.599609 C 31.373826 19.104024 31 20.061492 31 21 L 31 25 L 35.779297 25 L 35.179688 28 L 31 28 L 31 44 L 27 44 L 27 28 L 24 28 L 24 25 L 27 25 L 27 21 C 27 19.166667 27.464088 17.646453 28.28125 16.625 C 29.098412 15.603547 30.25 15 32 15 z"></path>
</symbol>
 <symbol id="instagram" viewBox="0 0 24 24"><path d="M 8 3 C 5.243 3 3 5.243 3 8 L 3 16 C 3 18.757 5.243 21 8 21 L 16 21 C 18.757 21 21 18.757 21 16 L 21 8 C 21 5.243 18.757 3 16 3 L 8 3 z M 8 5 L 16 5 C 17.654 5 19 6.346 19 8 L 19 16 C 19 17.654 17.654 19 16 19 L 8 19 C 6.346 19 5 17.654 5 16 L 5 8 C 5 6.346 6.346 5 8 5 z M 17 6 A 1 1 0 0 0 16 7 A 1 1 0 0 0 17 8 A 1 1 0 0 0 18 7 A 1 1 0 0 0 17 6 z M 12 7 C 9.243 7 7 9.243 7 12 C 7 14.757 9.243 17 12 17 C 14.757 17 17 14.757 17 12 C 17 9.243 14.757 7 12 7 z M 12 9 C 13.654 9 15 10.346 15 12 C 15 13.654 13.654 15 12 15 C 10.346 15 9 13.654 9 12 C 9 10.346 10.346 9 12 9 z"></path>
<symbol id="telegram" viewBox="0 0 80 80"><path d="M 70.511719 10.986328 C 69.833089 11.015588 69.157051 11.196735 68.537109 11.4375 L 68.535156 11.4375 C 67.931048 11.673297 64.049934 13.281226 58.392578 15.628906 C 52.735222 17.976586 45.3821 21.032905 38.091797 24.064453 C 23.51119 30.12755 9.1835937 36.091797 9.1835938 36.091797 L 9.2480469 36.068359 C 9.2480469 36.068359 8.4485192 36.330303 7.6484375 36.871094 C 7.2483967 37.141489 6.8283994 37.486951 6.4960938 37.966797 C 6.163788 38.446643 5.9299055 39.103809 6.0195312 39.808594 C 6.1812736 41.080477 7.0482024 41.912426 7.7636719 42.412109 C 8.4791414 42.911793 9.1660156 43.148437 9.1660156 43.148438 L 9.1738281 43.152344 L 23.1875 47.785156 C 23.418097 48.587707 27.163839 61.631062 28.046875 64.384766 C 28.50876 65.826709 28.935922 66.627156 29.335938 67.130859 C 29.535944 67.382711 29.733459 67.561543 29.931641 67.683594 C 30.016841 67.736064 30.101273 67.771554 30.183594 67.802734 C 30.197014 67.807834 30.211349 67.817736 30.224609 67.822266 C 30.252855 67.83191 30.267938 67.831811 30.302734 67.839844 C 31.62302 68.328201 32.738281 67.476563 32.738281 67.476562 L 32.769531 67.453125 L 42.376953 59 L 56.585938 70.394531 L 56.710938 70.449219 C 58.991132 71.431474 60.875783 70.891854 61.970703 70.027344 C 63.065623 69.162833 63.509766 68.03125 63.509766 68.03125 L 63.544922 67.943359 L 73.794922 16.097656 C 74.046117 14.98858 74.071392 14.057617 73.853516 13.257812 C 73.635643 12.458006 73.128863 11.807693 72.5 11.443359 C 71.871137 11.079025 71.190348 10.957066 70.511719 10.986328 z M 70.566406 13.021484 C 70.96444 13.004357 71.29991 13.059037 71.498047 13.173828 C 71.696183 13.288619 71.824951 13.420226 71.923828 13.783203 C 72.022708 14.14618 72.046557 14.758873 71.84375 15.654297 L 71.839844 15.667969 L 61.630859 67.3125 C 61.615849 67.34707 61.352842 67.965627 60.730469 68.457031 C 60.102941 68.952505 59.248838 69.318622 57.578125 68.626953 L 34.738281 50.310547 A 1.0001 1.0001 0 0 0 34 50 A 1.0001 1.0001 0 0 0 32.988281 50.974609 L 30.384766 64.923828 C 30.251656 64.61729 30.108215 64.257609 29.953125 63.773438 C 29.147161 61.260079 25.522903 48.675314 25.166016 47.435547 L 61.013672 24.226562 A 1.0001 1.0001 0 0 0 62 25 A 1.0001 1.0001 0 0 0 62.988281 23.783203 C 63.014848 23.477186 62.989225 23.17624 62.855469 22.876953 C 62.639651 22.394056 62.128723 22.100054 61.765625 22.03125 C 61.039429 21.893642 60.566406 22.158203 60.566406 22.158203 L 60.466797 22.195312 L 23.857422 45.900391 L 9.8261719 41.261719 L 9.8222656 41.259766 C 9.8185507 41.25848 9.3777555 41.099419 8.9082031 40.771484 C 8.4366726 40.442168 8.062164 40.014757 8.0039062 39.556641 C 7.9835322 39.396426 8.0143062 39.287873 8.140625 39.105469 C 8.2669443 38.923065 8.501119 38.707449 8.7675781 38.527344 C 9.3004964 38.167134 9.8886719 37.962891 9.8886719 37.962891 L 9.9199219 37.951172 L 9.953125 37.9375 C 9.953125 37.9375 24.279232 31.97306 38.859375 25.910156 C 46.149446 22.878704 53.503668 19.823883 59.160156 17.476562 C 64.816644 15.129243 68.856374 13.458984 69.261719 13.300781 C 69.707777 13.127547 70.168373 13.038612 70.566406 13.021484 z M 59.199219 25.699219 L 58.398438 26.101562 L 58.240234 26.984375 L 58.853516 27.638672 L 59.199219 27.699219 L 60 27.298828 L 60.158203 26.416016 L 59.546875 25.761719 L 59.199219 25.699219 z M 56.400391 28.400391 L 55.599609 28.800781 L 55.441406 29.683594 L 56.052734 30.337891 L 56.400391 30.400391 L 57.201172 29.998047 L 57.359375 29.117188 L 56.746094 28.462891 L 56.400391 28.400391 z M 53.599609 31.099609 L 52.798828 31.501953 L 52.640625 32.382812 L 53.251953 33.037109 L 53.599609 33.099609 L 54.400391 32.699219 L 54.558594 31.816406 L 53.947266 31.162109 L 53.599609 31.099609 z M 50.800781 33.800781 L 49.998047 34.201172 L 49.841797 35.083984 L 50.453125 35.738281 L 50.800781 35.800781 L 51.601562 35.398438 L 51.759766 34.517578 L 51.146484 33.861328 L 50.800781 33.800781 z M 48 36.5 L 47.199219 36.902344 L 47.041016 37.783203 L 47.652344 38.4375 L 48 38.5 L 48.800781 38.099609 L 48.958984 37.216797 L 48.347656 36.5625 L 48 36.5 z M 45.199219 39.199219 L 44.398438 39.601562 L 44.240234 40.484375 L 44.853516 41.138672 L 45.199219 41.199219 L 46.001953 40.798828 L 46.158203 39.916016 L 45.546875 39.261719 L 45.199219 39.199219 z M 42.400391 41.900391 L 41.599609 42.300781 L 41.441406 43.183594 L 42.052734 43.837891 L 42.400391 43.900391 L 43.201172 43.498047 L 43.359375 42.617188 L 42.746094 41.962891 L 42.400391 41.900391 z M 39.599609 44.599609 L 38.798828 45.001953 L 38.640625 45.882812 L 39.253906 46.537109 L 39.599609 46.599609 L 40.400391 46.199219 L 40.558594 45.316406 L 39.947266 44.662109 L 39.599609 44.599609 z M 36.800781 47.300781 L 35.998047 47.701172 L 35.841797 48.583984 L 36.453125 49.238281 L 36.800781 49.300781 L 37.601562 48.898438 L 37.759766 48.015625 L 37.146484 47.361328 L 36.800781 47.300781 z M 34.675781 52.824219 L 40.794922 57.730469 L 32.378906 65.132812 L 34.675781 52.824219 z"></path>
</defs>

</svg>
